# Blender v2.80 (sub 75) OBJ File: 'chains.blend'
# www.blender.org
mtllib chain.mtl
o Torus.002
v -0.000000 -1.900000 -1.000000
v 0.351891 -1.644336 -1.000000
v 0.217480 -1.230664 -1.000000
v -0.217481 -1.230664 -1.000000
v -0.351891 -1.644336 -1.000000
v -0.000000 -0.000000 -2.900000
v 0.351891 -0.000000 -2.644336
v 0.217481 -0.000000 -2.230664
v -0.217481 -0.000000 -2.230664
v -0.351891 -0.000000 -2.644336
v 0.000000 1.900000 -1.000000
v 0.351891 1.644336 -1.000000
v 0.217481 1.230664 -1.000000
v -0.217480 1.230664 -1.000000
v -0.351891 1.644336 -1.000000
v -0.000000 -0.000000 0.900000
v 0.351891 -0.000000 0.644336
v 0.217481 -0.000000 0.230664
v -0.217481 -0.000000 0.230664
v -0.351891 -0.000000 0.644336
vt 0.500000 0.600000
vt 0.750000 0.600000
vt 0.750000 0.800000
vt 0.500000 0.800000
vt 0.750000 1.000000
vt 0.500000 1.000000
vt 0.500000 0.000000
vt 0.750000 0.000000
vt 0.750000 0.200000
vt 0.500000 0.200000
vt 0.750000 0.400000
vt 0.500000 0.400000
vt 1.000000 0.600000
vt 1.000000 0.800000
vt 1.000000 1.000000
vt 1.000000 0.000000
vt 1.000000 0.200000
vt 1.000000 0.400000
vt 0.000000 0.600000
vt 0.250000 0.600000
vt 0.250000 0.800000
vt 0.000000 0.800000
vt 0.250000 1.000000
vt 0.000000 1.000000
vt 0.000000 0.000000
vt 0.250000 0.000000
vt 0.250000 0.200000
vt 0.000000 0.200000
vt 0.250000 0.400000
vt 0.000000 0.400000
vn 0.4570 -0.6290 -0.6290
vn 0.9087 0.2952 0.2952
vn 0.0000 0.7071 0.7071
vn -0.9087 0.2952 0.2952
vn -0.4570 -0.6290 -0.6290
vn 0.4570 0.6290 -0.6290
vn 0.9087 -0.2952 0.2952
vn 0.0000 -0.7071 0.7071
vn -0.9087 -0.2952 0.2952
vn -0.4570 0.6290 -0.6290
vn 0.4570 0.6290 0.6290
vn 0.9087 -0.2952 -0.2952
vn 0.0000 -0.7071 -0.7071
vn -0.9087 -0.2952 -0.2952
vn -0.4570 0.6290 0.6290
vn 0.4570 -0.6290 0.6290
vn 0.9087 0.2952 -0.2952
vn 0.0000 0.7071 -0.7071
vn -0.9087 0.2952 -0.2952
vn -0.4570 -0.6290 0.6290
usemtl Material.001
s off
f 1/1/1 6/2/1 7/3/1 2/4/1
f 2/4/2 7/3/2 8/5/2 3/6/2
f 3/7/3 8/8/3 9/9/3 4/10/3
f 4/10/4 9/9/4 10/11/4 5/12/4
f 5/12/5 10/11/5 6/2/5 1/1/5
f 6/2/6 11/13/6 12/14/6 7/3/6
f 7/3/7 12/14/7 13/15/7 8/5/7
f 8/8/8 13/16/8 14/17/8 9/9/8
f 9/9/9 14/17/9 15/18/9 10/11/9
f 10/11/10 15/18/10 11/13/10 6/2/10
f 11/19/11 16/20/11 17/21/11 12/22/11
f 12/22/12 17/21/12 18/23/12 13/24/12
f 13/25/13 18/26/13 19/27/13 14/28/13
f 14/28/14 19/27/14 20/29/14 15/30/14
f 15/30/15 20/29/15 16/20/15 11/19/15
f 16/20/16 1/1/16 2/4/16 17/21/16
f 17/21/17 2/4/17 3/6/17 18/23/17
f 18/26/18 3/7/18 4/10/18 19/27/18
f 19/27/19 4/10/19 5/12/19 20/29/19
f 20/29/20 5/12/20 1/1/20 16/20/20
o Torus.000_Torus.003
v 1.900000 0.000000 1.000000
v 1.644336 0.351891 1.000000
v 1.230664 0.217481 1.000000
v 1.230664 -0.217481 1.000000
v 1.644336 -0.351891 1.000000
v 0.000000 0.000000 -0.900000
v 0.000000 0.351891 -0.644336
v 0.000000 0.217481 -0.230664
v 0.000000 -0.217481 -0.230664
v 0.000000 -0.351891 -0.644336
v -1.900000 0.000000 1.000000
v -1.644336 0.351891 1.000000
v -1.230664 0.217481 1.000000
v -1.230664 -0.217481 1.000000
v -1.644336 -0.351891 1.000000
v 0.000000 0.000000 2.900000
v 0.000000 0.351891 2.644336
v 0.000000 0.217481 2.230664
v 0.000000 -0.217481 2.230664
v 0.000000 -0.351891 2.644336
vt 0.500000 0.600000
vt 0.750000 0.600000
vt 0.750000 0.800000
vt 0.500000 0.800000
vt 0.750000 1.000000
vt 0.500000 1.000000
vt 0.500000 0.000000
vt 0.750000 0.000000
vt 0.750000 0.200000
vt 0.500000 0.200000
vt 0.750000 0.400000
vt 0.500000 0.400000
vt 1.000000 0.600000
vt 1.000000 0.800000
vt 1.000000 1.000000
vt 1.000000 0.000000
vt 1.000000 0.200000
vt 1.000000 0.400000
vt 0.000000 0.600000
vt 0.250000 0.600000
vt 0.250000 0.800000
vt 0.000000 0.800000
vt 0.250000 1.000000
vt 0.000000 1.000000
vt 0.000000 0.000000
vt 0.250000 0.000000
vt 0.250000 0.200000
vt 0.000000 0.200000
vt 0.250000 0.400000
vt 0.000000 0.400000
vn 0.6290 0.4570 -0.6290
vn -0.2952 0.9087 0.2952
vn -0.7071 0.0000 0.7071
vn -0.2952 -0.9087 0.2952
vn 0.6290 -0.4570 -0.6290
vn -0.6290 0.4570 -0.6290
vn 0.2952 0.9087 0.2952
vn 0.7071 0.0000 0.7071
vn 0.2952 -0.9087 0.2952
vn -0.6290 -0.4570 -0.6290
vn -0.6290 0.4570 0.6290
vn 0.2952 0.9087 -0.2952
vn 0.7071 0.0000 -0.7071
vn 0.2952 -0.9087 -0.2952
vn -0.6290 -0.4570 0.6290
vn 0.6290 0.4570 0.6290
vn -0.2952 0.9087 -0.2952
vn -0.7071 0.0000 -0.7071
vn -0.2952 -0.9087 -0.2952
vn 0.6290 -0.4570 0.6290
usemtl Material.001
s off
f 21/31/21 26/32/21 27/33/21 22/34/21
f 22/34/22 27/33/22 28/35/22 23/36/22
f 23/37/23 28/38/23 29/39/23 24/40/23
f 24/40/24 29/39/24 30/41/24 25/42/24
f 25/42/25 30/41/25 26/32/25 21/31/25
f 26/32/26 31/43/26 32/44/26 27/33/26
f 27/33/27 32/44/27 33/45/27 28/35/27
f 28/38/28 33/46/28 34/47/28 29/39/28
f 29/39/29 34/47/29 35/48/29 30/41/29
f 30/41/30 35/48/30 31/43/30 26/32/30
f 31/49/31 36/50/31 37/51/31 32/52/31
f 32/52/32 37/51/32 38/53/32 33/54/32
f 33/55/33 38/56/33 39/57/33 34/58/33
f 34/58/34 39/57/34 40/59/34 35/60/34
f 35/60/35 40/59/35 36/50/35 31/49/35
f 36/50/36 21/31/36 22/34/36 37/51/36
f 37/51/37 22/34/37 23/36/37 38/53/37
f 38/56/38 23/37/38 24/40/38 39/57/38
f 39/57/39 24/40/39 25/42/39 40/59/39
f 40/59/40 25/42/40 21/31/40 36/50/40
o chain_Torus.005
v 1.900000 0.000000 5.060299
v 1.644336 0.351891 5.060299
v 1.230664 0.217481 5.060299
v 1.230664 -0.217481 5.060299
v 1.644336 -0.351891 5.060299
v 0.000000 0.000000 3.160299
v 0.000000 0.351891 3.415963
v 0.000000 0.217481 3.829636
v 0.000000 -0.217481 3.829636
v 0.000000 -0.351891 3.415963
v -1.900000 0.000000 5.060299
v -1.644336 0.351891 5.060299
v -1.230664 0.217481 5.060299
v -1.230664 -0.217481 5.060299
v -1.644336 -0.351891 5.060299
v 0.000000 0.000000 6.960299
v 0.000000 0.351891 6.704636
v 0.000000 0.217481 6.290963
v 0.000000 -0.217481 6.290963
v 0.000000 -0.351891 6.704636
vt 0.500000 0.600000
vt 0.750000 0.600000
vt 0.750000 0.800000
vt 0.500000 0.800000
vt 0.750000 1.000000
vt 0.500000 1.000000
vt 0.500000 0.000000
vt 0.750000 0.000000
vt 0.750000 0.200000
vt 0.500000 0.200000
vt 0.750000 0.400000
vt 0.500000 0.400000
vt 1.000000 0.600000
vt 1.000000 0.800000
vt 1.000000 1.000000
vt 1.000000 0.000000
vt 1.000000 0.200000
vt 1.000000 0.400000
vt 0.000000 0.600000
vt 0.250000 0.600000
vt 0.250000 0.800000
vt 0.000000 0.800000
vt 0.250000 1.000000
vt 0.000000 1.000000
vt 0.000000 0.000000
vt 0.250000 0.000000
vt 0.250000 0.200000
vt 0.000000 0.200000
vt 0.250000 0.400000
vt 0.000000 0.400000
vn 0.6290 0.4570 -0.6290
vn -0.2952 0.9087 0.2952
vn -0.7071 0.0000 0.7071
vn -0.2952 -0.9087 0.2952
vn 0.6290 -0.4570 -0.6290
vn -0.6290 0.4570 -0.6290
vn 0.2952 0.9087 0.2952
vn 0.7071 0.0000 0.7071
vn 0.2952 -0.9087 0.2952
vn -0.6290 -0.4570 -0.6290
vn -0.6290 0.4570 0.6290
vn 0.2952 0.9087 -0.2952
vn 0.7071 0.0000 -0.7071
vn 0.2952 -0.9087 -0.2952
vn -0.6290 -0.4570 0.6290
vn 0.6290 0.4570 0.6290
vn -0.2952 0.9087 -0.2952
vn -0.7071 0.0000 -0.7071
vn -0.2952 -0.9087 -0.2952
vn 0.6290 -0.4570 0.6290
usemtl Material.002
s off
f 41/61/41 46/62/41 47/63/41 42/64/41
f 42/64/42 47/63/42 48/65/42 43/66/42
f 43/67/43 48/68/43 49/69/43 44/70/43
f 44/70/44 49/69/44 50/71/44 45/72/44
f 45/72/45 50/71/45 46/62/45 41/61/45
f 46/62/46 51/73/46 52/74/46 47/63/46
f 47/63/47 52/74/47 53/75/47 48/65/47
f 48/68/48 53/76/48 54/77/48 49/69/48
f 49/69/49 54/77/49 55/78/49 50/71/49
f 50/71/50 55/78/50 51/73/50 46/62/50
f 51/79/51 56/80/51 57/81/51 52/82/51
f 52/82/52 57/81/52 58/83/52 53/84/52
f 53/85/53 58/86/53 59/87/53 54/88/53
f 54/88/54 59/87/54 60/89/54 55/90/54
f 55/90/55 60/89/55 56/80/55 51/79/55
f 56/80/56 41/61/56 42/64/56 57/81/56
f 57/81/57 42/64/57 43/66/57 58/83/57
f 58/86/58 43/67/58 44/70/58 59/87/58
f 59/87/59 44/70/59 45/72/59 60/89/59
f 60/89/60 45/72/60 41/61/60 56/80/60
o Torus.001_Torus.004
v -0.000000 -1.900000 3.060299
v 0.351891 -1.644336 3.060299
v 0.217480 -1.230664 3.060299
v -0.217481 -1.230664 3.060299
v -0.351891 -1.644336 3.060299
v -0.000000 -0.000000 1.160299
v 0.351891 -0.000000 1.415963
v 0.217481 -0.000000 1.829636
v -0.217481 -0.000000 1.829636
v -0.351891 -0.000000 1.415963
v 0.000000 1.900000 3.060299
v 0.351891 1.644336 3.060299
v 0.217481 1.230664 3.060299
v -0.217480 1.230664 3.060299
v -0.351891 1.644336 3.060299
v -0.000000 -0.000000 4.960299
v 0.351891 -0.000000 4.704636
v 0.217481 -0.000000 4.290963
v -0.217481 -0.000000 4.290963
v -0.351891 -0.000000 4.704636
vt 0.500000 0.600000
vt 0.750000 0.600000
vt 0.750000 0.800000
vt 0.500000 0.800000
vt 0.750000 1.000000
vt 0.500000 1.000000
vt 0.500000 0.000000
vt 0.750000 0.000000
vt 0.750000 0.200000
vt 0.500000 0.200000
vt 0.750000 0.400000
vt 0.500000 0.400000
vt 1.000000 0.600000
vt 1.000000 0.800000
vt 1.000000 1.000000
vt 1.000000 0.000000
vt 1.000000 0.200000
vt 1.000000 0.400000
vt 0.000000 0.600000
vt 0.250000 0.600000
vt 0.250000 0.800000
vt 0.000000 0.800000
vt 0.250000 1.000000
vt 0.000000 1.000000
vt 0.000000 0.000000
vt 0.250000 0.000000
vt 0.250000 0.200000
vt 0.000000 0.200000
vt 0.250000 0.400000
vt 0.000000 0.400000
vn 0.4570 -0.6290 -0.6290
vn 0.9087 0.2952 0.2952
vn 0.0000 0.7071 0.7071
vn -0.9087 0.2952 0.2952
vn -0.4570 -0.6290 -0.6290
vn 0.4570 0.6290 -0.6290
vn 0.9087 -0.2952 0.2952
vn 0.0000 -0.7071 0.7071
vn -0.9087 -0.2952 0.2952
vn -0.4570 0.6290 -0.6290
vn 0.4570 0.6290 0.6290
vn 0.9087 -0.2952 -0.2952
vn 0.0000 -0.7071 -0.7071
vn -0.9087 -0.2952 -0.2952
vn -0.4570 0.6290 0.6290
vn 0.4570 -0.6290 0.6290
vn 0.9087 0.2952 -0.2952
vn 0.0000 0.7071 -0.7071
vn -0.9087 0.2952 -0.2952
vn -0.4570 -0.6290 0.6290
usemtl Material.002
s off
f 61/91/61 66/92/61 67/93/61 62/94/61
f 62/94/62 67/93/62 68/95/62 63/96/62
f 63/97/63 68/98/63 69/99/63 64/100/63
f 64/100/64 69/99/64 70/101/64 65/102/64
f 65/102/65 70/101/65 66/92/65 61/91/65
f 66/92/66 71/103/66 72/104/66 67/93/66
f 67/93/67 72/104/67 73/105/67 68/95/67
f 68/98/68 73/106/68 74/107/68 69/99/68
f 69/99/69 74/107/69 75/108/69 70/101/69
f 70/101/70 75/108/70 71/103/70 66/92/70
f 71/109/71 76/110/71 77/111/71 72/112/71
f 72/112/72 77/111/72 78/113/72 73/114/72
f 73/115/73 78/116/73 79/117/73 74/118/73
f 74/118/74 79/117/74 80/119/74 75/120/74
f 75/120/75 80/119/75 76/110/75 71/109/75
f 76/110/76 61/91/76 62/94/76 77/111/76
f 77/111/77 62/94/77 63/96/77 78/113/77
f 78/116/78 63/97/78 64/100/78 79/117/78
f 79/117/79 64/100/79 65/102/79 80/119/79
f 80/119/80 65/102/80 61/91/80 76/110/80
o Torus.006_Torus.008
v 1.900000 0.000000 -3.145911
v 1.644336 0.351891 -3.145911
v 1.230664 0.217481 -3.145911
v 1.230664 -0.217481 -3.145911
v 1.644336 -0.351891 -3.145911
v 0.000000 0.000000 -5.045911
v 0.000000 0.351891 -4.790247
v 0.000000 0.217481 -4.376575
v 0.000000 -0.217481 -4.376575
v 0.000000 -0.351891 -4.790247
v -1.900000 0.000000 -3.145911
v -1.644336 0.351891 -3.145911
v -1.230664 0.217481 -3.145911
v -1.230664 -0.217481 -3.145911
v -1.644336 -0.351891 -3.145911
v 0.000000 0.000000 -1.245911
v 0.000000 0.351891 -1.501575
v 0.000000 0.217481 -1.915247
v 0.000000 -0.217481 -1.915247
v 0.000000 -0.351891 -1.501575
vt 0.500000 0.600000
vt 0.750000 0.600000
vt 0.750000 0.800000
vt 0.500000 0.800000
vt 0.750000 1.000000
vt 0.500000 1.000000
vt 0.500000 0.000000
vt 0.750000 0.000000
vt 0.750000 0.200000
vt 0.500000 0.200000
vt 0.750000 0.400000
vt 0.500000 0.400000
vt 1.000000 0.600000
vt 1.000000 0.800000
vt 1.000000 1.000000
vt 1.000000 0.000000
vt 1.000000 0.200000
vt 1.000000 0.400000
vt 0.000000 0.600000
vt 0.250000 0.600000
vt 0.250000 0.800000
vt 0.000000 0.800000
vt 0.250000 1.000000
vt 0.000000 1.000000
vt 0.000000 0.000000
vt 0.250000 0.000000
vt 0.250000 0.200000
vt 0.000000 0.200000
vt 0.250000 0.400000
vt 0.000000 0.400000
vn 0.6290 0.4570 -0.6290
vn -0.2952 0.9087 0.2952
vn -0.7071 0.0000 0.7071
vn -0.2952 -0.9087 0.2952
vn 0.6290 -0.4570 -0.6290
vn -0.6290 0.4570 -0.6290
vn 0.2952 0.9087 0.2952
vn 0.7071 0.0000 0.7071
vn 0.2952 -0.9087 0.2952
vn -0.6290 -0.4570 -0.6290
vn -0.6290 0.4570 0.6290
vn 0.2952 0.9087 -0.2952
vn 0.7071 0.0000 -0.7071
vn 0.2952 -0.9087 -0.2952
vn -0.6290 -0.4570 0.6290
vn 0.6290 0.4570 0.6290
vn -0.2952 0.9087 -0.2952
vn -0.7071 0.0000 -0.7071
vn -0.2952 -0.9087 -0.2952
vn 0.6290 -0.4570 0.6290
usemtl Material.005
s off
f 81/121/81 86/122/81 87/123/81 82/124/81
f 82/124/82 87/123/82 88/125/82 83/126/82
f 83/127/83 88/128/83 89/129/83 84/130/83
f 84/130/84 89/129/84 90/131/84 85/132/84
f 85/132/85 90/131/85 86/122/85 81/121/85
f 86/122/86 91/133/86 92/134/86 87/123/86
f 87/123/87 92/134/87 93/135/87 88/125/87
f 88/128/88 93/136/88 94/137/88 89/129/88
f 89/129/89 94/137/89 95/138/89 90/131/89
f 90/131/90 95/138/90 91/133/90 86/122/90
f 91/139/91 96/140/91 97/141/91 92/142/91
f 92/142/92 97/141/92 98/143/92 93/144/92
f 93/145/93 98/146/93 99/147/93 94/148/93
f 94/148/94 99/147/94 100/149/94 95/150/94
f 95/150/95 100/149/95 96/140/95 91/139/95
f 96/140/96 81/121/96 82/124/96 97/141/96
f 97/141/97 82/124/97 83/126/97 98/143/97
f 98/146/98 83/127/98 84/130/98 99/147/98
f 99/147/99 84/130/99 85/132/99 100/149/99
f 100/149/100 85/132/100 81/121/100 96/140/100
o Torus.005_Torus.007
v -0.000000 -1.900000 -5.145911
v 0.351891 -1.644336 -5.145911
v 0.217480 -1.230664 -5.145911
v -0.217481 -1.230664 -5.145911
v -0.351891 -1.644336 -5.145911
v -0.000000 -0.000000 -7.045911
v 0.351891 -0.000000 -6.790247
v 0.217481 -0.000000 -6.376575
v -0.217481 -0.000000 -6.376575
v -0.351891 -0.000000 -6.790247
v 0.000000 1.900000 -5.145911
v 0.351891 1.644336 -5.145911
v 0.217481 1.230664 -5.145911
v -0.217480 1.230664 -5.145911
v -0.351891 1.644336 -5.145911
v -0.000000 -0.000000 -3.245911
v 0.351891 -0.000000 -3.501575
v 0.217481 -0.000000 -3.915247
v -0.217481 -0.000000 -3.915247
v -0.351891 -0.000000 -3.501575
vt 0.500000 0.600000
vt 0.750000 0.600000
vt 0.750000 0.800000
vt 0.500000 0.800000
vt 0.750000 1.000000
vt 0.500000 1.000000
vt 0.500000 0.000000
vt 0.750000 0.000000
vt 0.750000 0.200000
vt 0.500000 0.200000
vt 0.750000 0.400000
vt 0.500000 0.400000
vt 1.000000 0.600000
vt 1.000000 0.800000
vt 1.000000 1.000000
vt 1.000000 0.000000
vt 1.000000 0.200000
vt 1.000000 0.400000
vt 0.000000 0.600000
vt 0.250000 0.600000
vt 0.250000 0.800000
vt 0.000000 0.800000
vt 0.250000 1.000000
vt 0.000000 1.000000
vt 0.000000 0.000000
vt 0.250000 0.000000
vt 0.250000 0.200000
vt 0.000000 0.200000
vt 0.250000 0.400000
vt 0.000000 0.400000
vn 0.4570 -0.6290 -0.6290
vn 0.9087 0.2952 0.2952
vn 0.0000 0.7071 0.7071
vn -0.9087 0.2952 0.2952
vn -0.4570 -0.6290 -0.6290
vn 0.4570 0.6290 -0.6290
vn 0.9087 -0.2952 0.2952
vn 0.0000 -0.7071 0.7071
vn -0.9087 -0.2952 0.2952
vn -0.4570 0.6290 -0.6290
vn 0.4570 0.6290 0.6290
vn 0.9087 -0.2952 -0.2952
vn 0.0000 -0.7071 -0.7071
vn -0.9087 -0.2952 -0.2952
vn -0.4570 0.6290 0.6290
vn 0.4570 -0.6290 0.6290
vn 0.9087 0.2952 -0.2952
vn 0.0000 0.7071 -0.7071
vn -0.9087 0.2952 -0.2952
vn -0.4570 -0.6290 0.6290
usemtl Material.004
s off
f 101/151/101 106/152/101 107/153/101 102/154/101
f 102/154/102 107/153/102 108/155/102 103/156/102
f 103/157/103 108/158/103 109/159/103 104/160/103
f 104/160/104 109/159/104 110/161/104 105/162/104
f 105/162/105 110/161/105 106/152/105 101/151/105
f 106/152/106 111/163/106 112/164/106 107/153/106
f 107/153/107 112/164/107 113/165/107 108/155/107
f 108/158/108 113/166/108 114/167/108 109/159/108
f 109/159/109 114/167/109 115/168/109 110/161/109
f 110/161/110 115/168/110 111/163/110 106/152/110
f 111/169/111 116/170/111 117/171/111 112/172/111
f 112/172/112 117/171/112 118/173/112 113/174/112
f 113/175/113 118/176/113 119/177/113 114/178/113
f 114/178/114 119/177/114 120/179/114 115/180/114
f 115/180/115 120/179/115 116/170/115 111/169/115
f 116/170/116 101/151/116 102/154/116 117/171/116
f 117/171/117 102/154/117 103/156/117 118/173/117
f 118/176/118 103/157/118 104/160/118 119/177/118
f 119/177/119 104/160/119 105/162/119 120/179/119
f 120/179/120 105/162/120 101/151/120 116/170/120
