# Blender v2.80 (sub 75) OBJ File: 'island1 start.blend'
# www.blender.org
mtllib diamond4.mtl
o Cube.004_Cube.005
v 12.661239 11.554731 -27.360859
v 12.661239 15.996939 -27.360859
v 12.661239 11.554731 -27.360859
v 12.661239 15.996939 -27.360859
v 12.661239 11.554731 -27.360859
v 12.661239 15.996939 -27.360859
v 12.661239 11.554731 -27.360859
v 12.661239 15.996939 -27.360859
v 11.273047 13.775835 -25.972670
v 11.273047 13.775835 -28.749048
v 14.049428 13.775835 -28.749048
v 14.049428 13.775835 -25.972670
vt 0.500000 0.000000
vt 0.625000 0.000000
vt 0.625000 0.250000
vt 0.500000 0.250000
vt 0.625000 0.500000
vt 0.500000 0.500000
vt 0.625000 0.750000
vt 0.500000 0.750000
vt 0.625000 1.000000
vt 0.500000 1.000000
vt 0.125000 0.500000
vt 0.375000 0.500000
vt 0.375000 0.750000
vt 0.125000 0.750000
vt 0.875000 0.500000
vt 0.875000 0.750000
vt 0.375000 1.000000
vt 0.375000 0.250000
vt 0.375000 0.000000
vn -0.8480 0.5300 0.0000
vn 0.0000 0.5300 -0.8480
vn 0.8480 0.5300 0.0000
vn 0.0000 0.5300 0.8480
vn 0.0000 0.0000 1.0000
vn 0.0000 -0.5300 0.8480
vn 0.8480 -0.5300 0.0000
vn 0.0000 -0.5300 -0.8480
vn -0.8480 -0.5300 0.0000
usemtl Material.019
s off
f 9/1/1 2/2/1 4/3/1 10/4/1
f 10/4/2 4/3/2 8/5/2 11/6/2
f 11/6/3 8/5/3 6/7/3 12/8/3
f 12/8/4 6/7/4 2/9/4 9/10/4
f 3/11/5 7/12/5 5/13/5 1/14/5
f 8/5/5 4/15/5 2/16/5 6/7/5
f 5/13/6 12/8/6 9/10/6 1/17/6
f 7/12/7 11/6/7 12/8/7 5/13/7
f 3/18/8 10/4/8 11/6/8 7/12/8
f 1/19/9 9/1/9 10/4/9 3/18/9
