# Blender v2.79 (sub 0) OBJ File: ''
# www.blender.org
mtllib pillar.mtl
o Cylinder
v 0.672914 0.027675 -0.757410
v 0.672914 1.972292 -0.909563
v 0.832918 0.027675 -0.741651
v 0.862602 1.972292 -0.890881
v 0.986774 0.027675 -0.694979
v 1.045000 1.972292 -0.835551
v 1.128567 0.027675 -0.619189
v 1.213099 1.972292 -0.745700
v 1.252851 0.027675 -0.517192
v 1.360440 1.972292 -0.624781
v 1.354848 0.027675 -0.392908
v 1.481359 1.972292 -0.477440
v 1.430638 0.027675 -0.251114
v 1.571210 1.972292 -0.309341
v 1.477310 0.027675 -0.097259
v 1.626540 1.972292 -0.126943
v 1.493069 0.027675 0.062745
v 1.645222 1.972292 0.062745
v 1.477310 0.027675 0.222749
v 1.626540 1.972292 0.252433
v 1.430638 0.027675 0.376605
v 1.571210 1.972292 0.434832
v 1.354848 0.027675 0.518399
v 1.481359 1.972292 0.602931
v 1.252851 0.027675 0.642682
v 1.360440 1.972292 0.750271
v 1.128567 0.027675 0.744679
v 1.213099 1.972292 0.871190
v 0.986773 0.027675 0.820470
v 1.045000 1.972292 0.961041
v 0.832918 0.027675 0.867141
v 0.862602 1.972292 1.016371
v 0.672914 0.027675 0.882900
v 0.672914 1.972292 1.035054
v 0.512909 0.027675 0.867141
v 0.483225 1.972292 1.016371
v 0.359054 0.027675 0.820469
v 0.300827 1.972292 0.961041
v 0.217260 0.027675 0.744679
v 0.132728 1.972292 0.871190
v 0.092976 0.027675 0.642682
v -0.014613 1.972292 0.750271
v -0.009020 0.027675 0.518399
v -0.135532 1.972292 0.602930
v -0.084811 0.027675 0.376604
v -0.225382 1.972292 0.434831
v -0.131482 0.027675 0.222749
v -0.280712 1.972292 0.252432
v -0.147241 0.027675 0.062745
v -0.299395 1.972292 0.062744
v -0.131482 0.027675 -0.097260
v -0.280712 1.972292 -0.126944
v -0.084810 0.027675 -0.251115
v -0.225382 1.972292 -0.309342
v -0.009019 0.027675 -0.392909
v -0.135530 1.972292 -0.477441
v 0.092977 0.027675 -0.517192
v -0.014611 1.972292 -0.624781
v 0.217261 0.027675 -0.619189
v 0.132729 1.972292 -0.745700
v 0.359055 0.027675 -0.694979
v 0.300829 1.972292 -0.835551
v 0.512911 0.027675 -0.741651
v 0.483227 1.972292 -0.890881
v 0.672914 0.027675 -0.909563
v 0.862602 0.027675 -0.890881
v 1.045000 0.027675 -0.835551
v 1.213099 0.027675 -0.745700
v 1.360440 0.027675 -0.624781
v 1.481359 0.027675 -0.477440
v 1.571210 0.027675 -0.309341
v 1.626540 0.027675 -0.126943
v 1.645222 0.027675 0.062745
v 1.626540 0.027675 0.252433
v 1.571210 0.027675 0.434832
v 1.481359 0.027675 0.602931
v 1.360440 0.027675 0.750271
v 1.213099 0.027675 0.871190
v 1.045000 0.027675 0.961041
v 0.862602 0.027675 1.016371
v 0.672914 0.027675 1.035054
v 0.483225 0.027675 1.016371
v 0.300827 0.027675 0.961041
v 0.132728 0.027675 0.871190
v -0.014613 0.027675 0.750271
v -0.135532 0.027675 0.602930
v -0.225382 0.027675 0.434831
v -0.280712 0.027675 0.252432
v -0.299395 0.027675 0.062744
v -0.280712 0.027675 -0.126944
v -0.225382 0.027675 -0.309342
v -0.135530 0.027675 -0.477441
v -0.014611 0.027675 -0.624781
v 0.132729 0.027675 -0.745700
v 0.300829 0.027675 -0.835551
v 0.483227 0.027675 -0.890881
v 0.672914 -0.046898 -0.757410
v 0.832918 -0.046898 -0.741651
v 0.986774 -0.046898 -0.694979
v 1.128567 -0.046898 -0.619189
v 1.252851 -0.046898 -0.517192
v 1.354848 -0.046898 -0.392908
v 1.430638 -0.046898 -0.251114
v 1.477310 -0.046898 -0.097259
v 1.493069 -0.046898 0.062745
v 1.477310 -0.046898 0.222749
v 1.430638 -0.046898 0.376605
v 1.354848 -0.046898 0.518399
v 1.252851 -0.046898 0.642682
v 1.128567 -0.046898 0.744679
v 0.986773 -0.046898 0.820470
v 0.832918 -0.046898 0.867141
v 0.672914 -0.046898 0.882900
v 0.512909 -0.046898 0.867141
v 0.359054 -0.046898 0.820469
v 0.217260 -0.046898 0.744679
v 0.092976 -0.046898 0.642682
v -0.009020 -0.046898 0.518399
v -0.084811 -0.046898 0.376604
v -0.131482 -0.046898 0.222749
v -0.147241 -0.046898 0.062745
v -0.131482 -0.046898 -0.097260
v -0.084810 -0.046898 -0.251115
v -0.009019 -0.046898 -0.392909
v 0.092977 -0.046898 -0.517192
v 0.217261 -0.046898 -0.619189
v 0.359055 -0.046898 -0.694979
v 0.512911 -0.046898 -0.741651
vn 0.0980 0.0000 -0.9952
vn 0.2903 0.0000 -0.9569
vn 0.4714 0.0000 -0.8819
vn 0.6344 0.0000 -0.7730
vn 0.7730 0.0000 -0.6344
vn 0.8819 0.0000 -0.4714
vn 0.9569 0.0000 -0.2903
vn 0.9952 0.0000 -0.0980
vn 0.9952 0.0000 0.0980
vn 0.9569 0.0000 0.2903
vn 0.8819 0.0000 0.4714
vn 0.7730 0.0000 0.6344
vn 0.6344 0.0000 0.7730
vn 0.4714 0.0000 0.8819
vn 0.2903 0.0000 0.9569
vn 0.0980 0.0000 0.9952
vn -0.0980 0.0000 0.9952
vn -0.2903 0.0000 0.9569
vn -0.4714 0.0000 0.8819
vn -0.6344 0.0000 0.7730
vn -0.7730 0.0000 0.6344
vn -0.8819 0.0000 0.4714
vn -0.9569 0.0000 0.2903
vn -0.9952 0.0000 0.0980
vn -0.9952 0.0000 -0.0980
vn -0.9569 0.0000 -0.2903
vn -0.8819 0.0000 -0.4714
vn -0.7730 0.0000 -0.6344
vn -0.6344 0.0000 -0.7730
vn -0.4714 0.0000 -0.8819
vn 0.0000 1.0000 -0.0000
vn -0.2903 0.0000 -0.9569
vn -0.0980 0.0000 -0.9952
vn 0.0000 -1.0000 -0.0000
usemtl Material.001
s off
f 65//1 2//1 4//1 66//1
f 66//2 4//2 6//2 67//2
f 67//3 6//3 8//3 68//3
f 68//4 8//4 10//4 69//4
f 69//5 10//5 12//5 70//5
f 70//6 12//6 14//6 71//6
f 71//7 14//7 16//7 72//7
f 72//8 16//8 18//8 73//8
f 73//9 18//9 20//9 74//9
f 74//10 20//10 22//10 75//10
f 75//11 22//11 24//11 76//11
f 76//12 24//12 26//12 77//12
f 77//13 26//13 28//13 78//13
f 78//14 28//14 30//14 79//14
f 79//15 30//15 32//15 80//15
f 80//16 32//16 34//16 81//16
f 81//17 34//17 36//17 82//17
f 82//18 36//18 38//18 83//18
f 83//19 38//19 40//19 84//19
f 84//20 40//20 42//20 85//20
f 85//21 42//21 44//21 86//21
f 86//22 44//22 46//22 87//22
f 87//23 46//23 48//23 88//23
f 88//24 48//24 50//24 89//24
f 89//25 50//25 52//25 90//25
f 90//26 52//26 54//26 91//26
f 91//27 54//27 56//27 92//27
f 92//28 56//28 58//28 93//28
f 93//29 58//29 60//29 94//29
f 94//30 60//30 62//30 95//30
f 4//31 2//31 64//31 62//31 60//31 58//31 56//31 54//31 52//31 50//31 48//31 46//31 44//31 42//31 40//31 38//31 36//31 34//31 32//31 30//31 28//31 26//31 24//31 22//31 20//31 18//31 16//31 14//31 12//31 10//31 8//31 6//31
f 95//32 62//32 64//32 96//32
f 96//33 64//33 2//33 65//33
f 11//6 13//6 103//6 102//6
f 3//34 1//34 65//34 66//34
f 5//34 3//34 66//34 67//34
f 7//34 5//34 67//34 68//34
f 9//34 7//34 68//34 69//34
f 11//34 9//34 69//34 70//34
f 13//34 11//34 70//34 71//34
f 15//34 13//34 71//34 72//34
f 17//34 15//34 72//34 73//34
f 19//34 17//34 73//34 74//34
f 21//34 19//34 74//34 75//34
f 23//34 21//34 75//34 76//34
f 25//34 23//34 76//34 77//34
f 27//34 25//34 77//34 78//34
f 29//34 27//34 78//34 79//34
f 31//34 29//34 79//34 80//34
f 33//34 31//34 80//34 81//34
f 35//34 33//34 81//34 82//34
f 37//34 35//34 82//34 83//34
f 39//34 37//34 83//34 84//34
f 41//34 39//34 84//34 85//34
f 43//34 41//34 85//34 86//34
f 45//34 43//34 86//34 87//34
f 47//34 45//34 87//34 88//34
f 49//34 47//34 88//34 89//34
f 51//34 49//34 89//34 90//34
f 53//34 51//34 90//34 91//34
f 55//34 53//34 91//34 92//34
f 57//34 55//34 92//34 93//34
f 59//34 57//34 93//34 94//34
f 61//34 59//34 94//34 95//34
f 63//34 61//34 95//34 96//34
f 1//34 63//34 96//34 65//34
f 97//34 98//34 99//34 100//34 101//34 102//34 103//34 104//34 105//34 106//34 107//34 108//34 109//34 110//34 111//34 112//34 113//34 114//34 115//34 116//34 117//34 118//34 119//34 120//34 121//34 122//34 123//34 124//34 125//34 126//34 127//34 128//34
f 39//20 41//20 117//20 116//20
f 13//7 15//7 104//7 103//7
f 41//21 43//21 118//21 117//21
f 15//8 17//8 105//8 104//8
f 43//22 45//22 119//22 118//22
f 17//9 19//9 106//9 105//9
f 45//23 47//23 120//23 119//23
f 19//10 21//10 107//10 106//10
f 47//24 49//24 121//24 120//24
f 21//11 23//11 108//11 107//11
f 49//25 51//25 122//25 121//25
f 23//12 25//12 109//12 108//12
f 51//26 53//26 123//26 122//26
f 25//13 27//13 110//13 109//13
f 53//27 55//27 124//27 123//27
f 27//14 29//14 111//14 110//14
f 1//1 3//1 98//1 97//1
f 55//28 57//28 125//28 124//28
f 29//15 31//15 112//15 111//15
f 3//2 5//2 99//2 98//2
f 57//29 59//29 126//29 125//29
f 31//16 33//16 113//16 112//16
f 5//3 7//3 100//3 99//3
f 59//30 61//30 127//30 126//30
f 33//17 35//17 114//17 113//17
f 7//4 9//4 101//4 100//4
f 61//32 63//32 128//32 127//32
f 35//18 37//18 115//18 114//18
f 9//5 11//5 102//5 101//5
f 63//33 1//33 97//33 128//33
f 37//19 39//19 116//19 115//19
