# Blender v2.80 (sub 75) OBJ File: 'more foliage.blend'
# www.blender.org
mtllib purpleRing.mtl
o Torus
v 2.190000 0.000000 0.000000
v 2.070000 0.069282 0.000000
v 2.070000 -0.069282 0.000000
v 2.147920 0.000000 -0.427248
v 2.030226 0.069282 -0.403837
v 2.030226 -0.069282 -0.403837
v 2.023296 0.000000 -0.838077
v 1.912431 0.069282 -0.792155
v 1.912431 -0.069282 -0.792155
v 1.820918 0.000000 -1.216699
v 1.721142 0.069282 -1.150030
v 1.721142 -0.069282 -1.150030
v 1.548564 0.000000 -1.548564
v 1.463711 0.069282 -1.463711
v 1.463711 -0.069282 -1.463711
v 1.216699 0.000000 -1.820919
v 1.150030 0.069282 -1.721142
v 1.150030 -0.069282 -1.721142
v 0.838077 0.000000 -2.023296
v 0.792155 0.069282 -1.912431
v 0.792155 -0.069282 -1.912431
v 0.427248 0.000000 -2.147920
v 0.403837 0.069282 -2.030226
v 0.403837 -0.069282 -2.030226
v 0.000000 0.000000 -2.190000
v 0.000000 0.069282 -2.070000
v 0.000000 -0.069282 -2.070000
v -0.427248 0.000000 -2.147920
v -0.403837 0.069282 -2.030226
v -0.403837 -0.069282 -2.030226
v -0.838077 0.000000 -2.023296
v -0.792155 0.069282 -1.912431
v -0.792155 -0.069282 -1.912431
v -1.216698 0.000000 -1.820919
v -1.150030 0.069282 -1.721143
v -1.150030 -0.069282 -1.721143
v -1.548564 0.000000 -1.548563
v -1.463712 0.069282 -1.463711
v -1.463712 -0.069282 -1.463711
v -1.820918 0.000000 -1.216699
v -1.721142 0.069282 -1.150031
v -1.721142 -0.069282 -1.150031
v -2.023296 0.000000 -0.838077
v -1.912431 0.069282 -0.792155
v -1.912431 -0.069282 -0.792155
v -2.147920 0.000000 -0.427248
v -2.030226 0.069282 -0.403837
v -2.030226 -0.069282 -0.403837
v -2.190000 0.000000 -0.000000
v -2.070000 0.069282 -0.000000
v -2.070000 -0.069282 -0.000000
v -2.147920 0.000000 0.427248
v -2.030226 0.069282 0.403837
v -2.030226 -0.069282 0.403837
v -2.023297 0.000000 0.838076
v -1.912431 0.069282 0.792154
v -1.912431 -0.069282 0.792154
v -1.820918 0.000000 1.216699
v -1.721142 0.069282 1.150031
v -1.721142 -0.069282 1.150031
v -1.548564 0.000000 1.548563
v -1.463712 0.069282 1.463711
v -1.463712 -0.069282 1.463711
v -1.216700 0.000000 1.820918
v -1.150032 0.069282 1.721141
v -1.150032 -0.069282 1.721141
v -0.838077 0.000000 2.023296
v -0.792155 0.069282 1.912431
v -0.792155 -0.069282 1.912431
v -0.427249 0.000000 2.147920
v -0.403838 0.069282 2.030226
v -0.403838 -0.069282 2.030226
v 0.000000 0.000000 2.190000
v 0.000000 0.069282 2.070000
v 0.000000 -0.069282 2.070000
v 0.427247 0.000000 2.147920
v 0.403836 0.069282 2.030226
v 0.403836 -0.069282 2.030226
v 0.838077 0.000000 2.023296
v 0.792155 0.069282 1.912431
v 0.792155 -0.069282 1.912431
v 1.216699 0.000000 1.820919
v 1.150030 0.069282 1.721142
v 1.150030 -0.069282 1.721142
v 1.548563 0.000000 1.548565
v 1.463710 0.069282 1.463712
v 1.463710 -0.069282 1.463712
v 1.820918 0.000000 1.216699
v 1.721142 0.069282 1.150030
v 1.721142 -0.069282 1.150030
v 2.023296 0.000000 0.838078
v 1.912431 0.069282 0.792156
v 1.912431 -0.069282 0.792156
v 2.147920 0.000000 0.427247
v 2.030226 0.069282 0.403837
v 2.030226 -0.069282 0.403837
vt 0.500000 0.666667
vt 0.531250 0.666667
vt 0.531250 1.000000
vt 0.500000 1.000000
vt 0.500000 0.000000
vt 0.531250 0.000000
vt 0.531250 0.333333
vt 0.500000 0.333333
vt 0.562500 0.666667
vt 0.562500 1.000000
vt 0.562500 0.000000
vt 0.562500 0.333333
vt 0.593750 0.666667
vt 0.593750 1.000000
vt 0.593750 0.000000
vt 0.593750 0.333333
vt 0.625000 0.666667
vt 0.625000 1.000000
vt 0.625000 0.000000
vt 0.625000 0.333333
vt 0.656250 0.666667
vt 0.656250 1.000000
vt 0.656250 0.000000
vt 0.656250 0.333333
vt 0.687500 0.666667
vt 0.687500 1.000000
vt 0.687500 0.000000
vt 0.687500 0.333333
vt 0.718750 0.666667
vt 0.718750 1.000000
vt 0.718750 0.000000
vt 0.718750 0.333333
vt 0.750000 0.666667
vt 0.750000 1.000000
vt 0.750000 0.000000
vt 0.750000 0.333333
vt 0.781250 0.666667
vt 0.781250 1.000000
vt 0.781250 0.000000
vt 0.781250 0.333333
vt 0.812500 0.666667
vt 0.812500 1.000000
vt 0.812500 0.000000
vt 0.812500 0.333333
vt 0.843750 0.666667
vt 0.843750 1.000000
vt 0.843750 0.000000
vt 0.843750 0.333333
vt 0.875000 0.666667
vt 0.875000 1.000000
vt 0.875000 0.000000
vt 0.875000 0.333333
vt 0.906250 0.666667
vt 0.906250 1.000000
vt 0.906250 0.000000
vt 0.906250 0.333333
vt 0.937500 0.666667
vt 0.937500 1.000000
vt 0.937500 0.000000
vt 0.937500 0.333333
vt 0.968750 0.666667
vt 0.968750 1.000000
vt 0.968750 0.000000
vt 0.968750 0.333333
vt 1.000000 0.666667
vt 1.000000 1.000000
vt 1.000000 0.000000
vt 1.000000 0.333333
vt 0.000000 0.666667
vt 0.031250 0.666667
vt 0.031250 1.000000
vt 0.000000 1.000000
vt 0.000000 0.000000
vt 0.031250 0.000000
vt 0.031250 0.333333
vt 0.000000 0.333333
vt 0.062500 0.666667
vt 0.062500 1.000000
vt 0.062500 0.000000
vt 0.062500 0.333333
vt 0.093750 0.666667
vt 0.093750 1.000000
vt 0.093750 0.000000
vt 0.093750 0.333333
vt 0.125000 0.666667
vt 0.125000 1.000000
vt 0.125000 0.000000
vt 0.125000 0.333333
vt 0.156250 0.666667
vt 0.156250 1.000000
vt 0.156250 0.000000
vt 0.156250 0.333333
vt 0.187500 0.666667
vt 0.187500 1.000000
vt 0.187500 0.000000
vt 0.187500 0.333333
vt 0.218750 0.666667
vt 0.218750 1.000000
vt 0.218750 0.000000
vt 0.218750 0.333333
vt 0.250000 0.666667
vt 0.250000 1.000000
vt 0.250000 0.000000
vt 0.250000 0.333333
vt 0.281250 0.666667
vt 0.281250 1.000000
vt 0.281250 0.000000
vt 0.281250 0.333333
vt 0.312500 0.666667
vt 0.312500 1.000000
vt 0.312500 0.000000
vt 0.312500 0.333333
vt 0.343750 0.666667
vt 0.343750 1.000000
vt 0.343750 0.000000
vt 0.343750 0.333333
vt 0.375000 0.666667
vt 0.375000 1.000000
vt 0.375000 0.000000
vt 0.375000 0.333333
vt 0.406250 0.666667
vt 0.406250 1.000000
vt 0.406250 0.000000
vt 0.406250 0.333333
vt 0.437500 0.666667
vt 0.437500 1.000000
vt 0.437500 0.000000
vt 0.437500 0.333333
vt 0.468750 0.666667
vt 0.468750 1.000000
vt 0.468750 0.000000
vt 0.468750 0.333333
vn 0.4994 0.8650 -0.0492
vn -0.9952 0.0000 0.0980
vn 0.4994 -0.8650 -0.0492
vn 0.4802 0.8650 -0.1457
vn -0.9569 0.0000 0.2903
vn 0.4802 -0.8650 -0.1457
vn 0.4426 0.8650 -0.2366
vn -0.8819 0.0000 0.4714
vn 0.4426 -0.8650 -0.2366
vn 0.3879 0.8650 -0.3183
vn -0.7730 0.0000 0.6344
vn 0.3879 -0.8650 -0.3183
vn 0.3183 0.8650 -0.3879
vn -0.6344 0.0000 0.7730
vn 0.3183 -0.8650 -0.3879
vn 0.2366 0.8650 -0.4426
vn -0.4714 0.0000 0.8819
vn 0.2366 -0.8650 -0.4426
vn 0.1457 0.8650 -0.4802
vn -0.2903 0.0000 0.9569
vn 0.1457 -0.8650 -0.4802
vn 0.0492 0.8650 -0.4994
vn -0.0980 0.0000 0.9952
vn 0.0492 -0.8650 -0.4994
vn -0.0492 0.8650 -0.4994
vn 0.0980 0.0000 0.9952
vn -0.0492 -0.8650 -0.4994
vn -0.1457 0.8650 -0.4802
vn 0.2903 0.0000 0.9569
vn -0.1457 -0.8650 -0.4802
vn -0.2366 0.8650 -0.4426
vn 0.4714 0.0000 0.8819
vn -0.2366 -0.8650 -0.4426
vn -0.3183 0.8650 -0.3879
vn 0.6344 0.0000 0.7730
vn -0.3183 -0.8650 -0.3879
vn -0.3879 0.8650 -0.3183
vn 0.7730 0.0000 0.6344
vn -0.3879 -0.8650 -0.3183
vn -0.4426 0.8650 -0.2366
vn 0.8819 0.0000 0.4714
vn -0.4426 -0.8650 -0.2366
vn -0.4802 0.8650 -0.1457
vn 0.9569 0.0000 0.2903
vn -0.4802 -0.8650 -0.1457
vn -0.4994 0.8650 -0.0492
vn 0.9952 0.0000 0.0980
vn -0.4994 -0.8650 -0.0492
vn -0.4994 0.8650 0.0492
vn 0.9952 0.0000 -0.0980
vn -0.4994 -0.8650 0.0492
vn -0.4802 0.8650 0.1457
vn 0.9569 0.0000 -0.2903
vn -0.4802 -0.8650 0.1457
vn -0.4426 0.8650 0.2366
vn 0.8819 0.0000 -0.4714
vn -0.4426 -0.8650 0.2366
vn -0.3879 0.8650 0.3183
vn 0.7730 0.0000 -0.6344
vn -0.3879 -0.8650 0.3183
vn -0.3183 0.8650 0.3879
vn 0.6344 0.0000 -0.7730
vn -0.3183 -0.8650 0.3879
vn -0.2366 0.8650 0.4426
vn 0.4714 0.0000 -0.8819
vn -0.2366 -0.8650 0.4426
vn -0.1457 0.8650 0.4802
vn 0.2903 0.0000 -0.9569
vn -0.1457 -0.8650 0.4802
vn -0.0492 0.8650 0.4994
vn 0.0980 0.0000 -0.9952
vn -0.0492 -0.8650 0.4994
vn 0.0492 0.8650 0.4994
vn -0.0980 0.0000 -0.9952
vn 0.0492 -0.8650 0.4994
vn 0.1457 0.8650 0.4802
vn -0.2903 0.0000 -0.9569
vn 0.1457 -0.8650 0.4802
vn 0.2366 0.8650 0.4426
vn -0.4714 0.0000 -0.8819
vn 0.2366 -0.8650 0.4426
vn 0.3183 0.8650 0.3879
vn -0.6344 0.0000 -0.7730
vn 0.3183 -0.8650 0.3879
vn 0.3879 0.8650 0.3183
vn -0.7730 0.0000 -0.6344
vn 0.3879 -0.8650 0.3183
vn 0.4426 0.8650 0.2366
vn -0.8819 0.0000 -0.4714
vn 0.4426 -0.8650 0.2366
vn 0.4802 0.8650 0.1457
vn -0.9569 0.0000 -0.2903
vn 0.4802 -0.8650 0.1457
vn 0.4994 0.8650 0.0492
vn -0.9952 0.0000 -0.0980
vn 0.4994 -0.8650 0.0492
usemtl Material.003
s off
f 1/1/1 4/2/1 5/3/1 2/4/1
f 2/5/2 5/6/2 6/7/2 3/8/2
f 3/8/3 6/7/3 4/2/3 1/1/3
f 4/2/4 7/9/4 8/10/4 5/3/4
f 5/6/5 8/11/5 9/12/5 6/7/5
f 6/7/6 9/12/6 7/9/6 4/2/6
f 7/9/7 10/13/7 11/14/7 8/10/7
f 8/11/8 11/15/8 12/16/8 9/12/8
f 9/12/9 12/16/9 10/13/9 7/9/9
f 10/13/10 13/17/10 14/18/10 11/14/10
f 11/15/11 14/19/11 15/20/11 12/16/11
f 12/16/12 15/20/12 13/17/12 10/13/12
f 13/17/13 16/21/13 17/22/13 14/18/13
f 14/19/14 17/23/14 18/24/14 15/20/14
f 15/20/15 18/24/15 16/21/15 13/17/15
f 16/21/16 19/25/16 20/26/16 17/22/16
f 17/23/17 20/27/17 21/28/17 18/24/17
f 18/24/18 21/28/18 19/25/18 16/21/18
f 19/25/19 22/29/19 23/30/19 20/26/19
f 20/27/20 23/31/20 24/32/20 21/28/20
f 21/28/21 24/32/21 22/29/21 19/25/21
f 22/29/22 25/33/22 26/34/22 23/30/22
f 23/31/23 26/35/23 27/36/23 24/32/23
f 24/32/24 27/36/24 25/33/24 22/29/24
f 25/33/25 28/37/25 29/38/25 26/34/25
f 26/35/26 29/39/26 30/40/26 27/36/26
f 27/36/27 30/40/27 28/37/27 25/33/27
f 28/37/28 31/41/28 32/42/28 29/38/28
f 29/39/29 32/43/29 33/44/29 30/40/29
f 30/40/30 33/44/30 31/41/30 28/37/30
f 31/41/31 34/45/31 35/46/31 32/42/31
f 32/43/32 35/47/32 36/48/32 33/44/32
f 33/44/33 36/48/33 34/45/33 31/41/33
f 34/45/34 37/49/34 38/50/34 35/46/34
f 35/47/35 38/51/35 39/52/35 36/48/35
f 36/48/36 39/52/36 37/49/36 34/45/36
f 37/49/37 40/53/37 41/54/37 38/50/37
f 38/51/38 41/55/38 42/56/38 39/52/38
f 39/52/39 42/56/39 40/53/39 37/49/39
f 40/53/40 43/57/40 44/58/40 41/54/40
f 41/55/41 44/59/41 45/60/41 42/56/41
f 42/56/42 45/60/42 43/57/42 40/53/42
f 43/57/43 46/61/43 47/62/43 44/58/43
f 44/59/44 47/63/44 48/64/44 45/60/44
f 45/60/45 48/64/45 46/61/45 43/57/45
f 46/61/46 49/65/46 50/66/46 47/62/46
f 47/63/47 50/67/47 51/68/47 48/64/47
f 48/64/48 51/68/48 49/65/48 46/61/48
f 49/69/49 52/70/49 53/71/49 50/72/49
f 50/73/50 53/74/50 54/75/50 51/76/50
f 51/76/51 54/75/51 52/70/51 49/69/51
f 52/70/52 55/77/52 56/78/52 53/71/52
f 53/74/53 56/79/53 57/80/53 54/75/53
f 54/75/54 57/80/54 55/77/54 52/70/54
f 55/77/55 58/81/55 59/82/55 56/78/55
f 56/79/56 59/83/56 60/84/56 57/80/56
f 57/80/57 60/84/57 58/81/57 55/77/57
f 58/81/58 61/85/58 62/86/58 59/82/58
f 59/83/59 62/87/59 63/88/59 60/84/59
f 60/84/60 63/88/60 61/85/60 58/81/60
f 61/85/61 64/89/61 65/90/61 62/86/61
f 62/87/62 65/91/62 66/92/62 63/88/62
f 63/88/63 66/92/63 64/89/63 61/85/63
f 64/89/64 67/93/64 68/94/64 65/90/64
f 65/91/65 68/95/65 69/96/65 66/92/65
f 66/92/66 69/96/66 67/93/66 64/89/66
f 67/93/67 70/97/67 71/98/67 68/94/67
f 68/95/68 71/99/68 72/100/68 69/96/68
f 69/96/69 72/100/69 70/97/69 67/93/69
f 70/97/70 73/101/70 74/102/70 71/98/70
f 71/99/71 74/103/71 75/104/71 72/100/71
f 72/100/72 75/104/72 73/101/72 70/97/72
f 73/101/73 76/105/73 77/106/73 74/102/73
f 74/103/74 77/107/74 78/108/74 75/104/74
f 75/104/75 78/108/75 76/105/75 73/101/75
f 76/105/76 79/109/76 80/110/76 77/106/76
f 77/107/77 80/111/77 81/112/77 78/108/77
f 78/108/78 81/112/78 79/109/78 76/105/78
f 79/109/79 82/113/79 83/114/79 80/110/79
f 80/111/80 83/115/80 84/116/80 81/112/80
f 81/112/81 84/116/81 82/113/81 79/109/81
f 82/113/82 85/117/82 86/118/82 83/114/82
f 83/115/83 86/119/83 87/120/83 84/116/83
f 84/116/84 87/120/84 85/117/84 82/113/84
f 85/117/85 88/121/85 89/122/85 86/118/85
f 86/119/86 89/123/86 90/124/86 87/120/86
f 87/120/87 90/124/87 88/121/87 85/117/87
f 88/121/88 91/125/88 92/126/88 89/122/88
f 89/123/89 92/127/89 93/128/89 90/124/89
f 90/124/90 93/128/90 91/125/90 88/121/90
f 91/125/91 94/129/91 95/130/91 92/126/91
f 92/127/92 95/131/92 96/132/92 93/128/92
f 93/128/93 96/132/93 94/129/93 91/125/93
f 94/129/94 1/1/94 2/4/94 95/130/94
f 95/131/95 2/5/95 3/8/95 96/132/95
f 96/132/96 3/8/96 1/1/96 94/129/96
